<mxfile host="app.diagrams.net" modified="2024-06-06T17:32:43.558Z" agent="Mozilla/5.0 (X11; Linux x86_64) AppleWebKit/537.36 (KHTML, like Gecko) Chrome/125.0.0.0 Safari/537.36" version="24.5.1" etag="v3Ed_KaMIabmFiMG_XU7" type="github">
  <diagram name="Page-1" id="SJXQcsMfNPm91MAAeOzp">
    <mxGraphModel>
      <root>
        <mxCell id="0" />
        <mxCell id="1" parent="0" />
      </root>
    </mxGraphModel>
  </diagram>
</mxfile>
